<svg width="41" height="41" viewBox="0 0 41 41" fill="none" xmlns="http://www.w3.org/2000/svg">
<path d="M20.5 3.41675C11.0649 3.41675 3.41666 11.065 3.41666 20.5001C3.41666 29.9352 11.0649 37.5834 20.5 37.5834C29.9351 37.5834 37.5833 29.9352 37.5833 20.5001C37.5833 11.065 29.9351 3.41675 20.5 3.41675Z" fill="url(#paint0_linear)"/>
<path d="M22.8122 25.028H27.2334L27.9278 20.5368H22.8122V18.0819C22.8122 16.2164 23.4221 14.5619 25.1672 14.5619H27.9714V10.643C27.4785 10.5764 26.4365 10.4312 24.4676 10.4312C20.3556 10.4312 17.9452 12.6024 17.9452 17.5498V20.5377H13.7179V25.0289H17.9443V37.3733C18.7814 37.498 19.6296 37.5834 20.5 37.5834C21.2867 37.5834 22.0546 37.5116 22.8122 37.4091V25.028Z" fill="white"/>
<defs>
<linearGradient id="paint0_linear" x1="8.53569" y1="8.53577" x2="34.692" y2="34.6921" gradientUnits="userSpaceOnUse">
<stop stop-color="#2AA4F4"/>
<stop offset="1" stop-color="#007AD9"/>
</linearGradient>
</defs>
</svg>
