<svg width="41" height="41" viewBox="0 0 41 41" fill="none" xmlns="http://www.w3.org/2000/svg">
<path d="M29.0562 35.8665L11.9729 35.8827C8.21452 35.8861 5.13696 32.8145 5.13269 29.0562L5.11646 11.9729C5.11304 8.21452 8.18462 5.13696 11.943 5.13269L29.0263 5.11646C32.7846 5.11304 35.8622 8.18463 35.8665 11.943L35.8827 29.0263C35.887 32.7855 32.8145 35.863 29.0562 35.8665Z" fill="url(#paint0_radial)"/>
<path d="M29.0562 35.8665L11.9729 35.8827C8.21452 35.8861 5.13696 32.8145 5.13269 29.0562L5.11646 11.9729C5.11304 8.21452 8.18462 5.13696 11.943 5.13269L29.0263 5.11646C32.7846 5.11304 35.8622 8.18463 35.8665 11.943L35.8827 29.0263C35.887 32.7855 32.8145 35.863 29.0562 35.8665Z" fill="url(#paint1_radial)"/>
<path d="M20.5 26.4791C17.2038 26.4791 14.5208 23.797 14.5208 20.4999C14.5208 17.2028 17.2038 14.5208 20.5 14.5208C23.7962 14.5208 26.4792 17.2028 26.4792 20.4999C26.4792 23.797 23.7962 26.4791 20.5 26.4791ZM20.5 16.2291C18.1451 16.2291 16.2292 18.145 16.2292 20.4999C16.2292 22.8549 18.1451 24.7708 20.5 24.7708C22.8549 24.7708 24.7708 22.8549 24.7708 20.4999C24.7708 18.145 22.8549 16.2291 20.5 16.2291Z" fill="white"/>
<path d="M26.9062 15.375C27.6139 15.375 28.1875 14.8014 28.1875 14.0938C28.1875 13.3861 27.6139 12.8125 26.9062 12.8125C26.1986 12.8125 25.625 13.3861 25.625 14.0938C25.625 14.8014 26.1986 15.375 26.9062 15.375Z" fill="white"/>
<path d="M25.625 31.6041H15.375C12.0788 31.6041 9.39583 28.922 9.39583 25.6249V15.3749C9.39583 12.0778 12.0788 9.39575 15.375 9.39575H25.625C28.9212 9.39575 31.6042 12.0778 31.6042 15.3749V25.6249C31.6042 28.922 28.9212 31.6041 25.625 31.6041ZM15.375 11.1041C13.0201 11.1041 11.1042 13.02 11.1042 15.3749V25.6249C11.1042 27.9799 13.0201 29.8958 15.375 29.8958H25.625C27.9799 29.8958 29.8958 27.9799 29.8958 25.6249V15.3749C29.8958 13.02 27.9799 11.1041 25.625 11.1041H15.375Z" fill="white"/>
<defs>
<radialGradient id="paint0_radial" cx="0" cy="0" r="1" gradientUnits="userSpaceOnUse" gradientTransform="translate(16.5537 35.9049) scale(38.3512)">
<stop stop-color="#FFDD55"/>
<stop offset="0.328" stop-color="#FF543F"/>
<stop offset="0.348" stop-color="#FC5245"/>
<stop offset="0.504" stop-color="#E64771"/>
<stop offset="0.643" stop-color="#D53E91"/>
<stop offset="0.761" stop-color="#CC39A4"/>
<stop offset="0.841" stop-color="#C837AB"/>
</radialGradient>
<radialGradient id="paint1_radial" cx="0" cy="0" r="1" gradientUnits="userSpaceOnUse" gradientTransform="translate(10.0672 4.73234) scale(25.4653 16.9675)">
<stop stop-color="#4168C9"/>
<stop offset="0.999" stop-color="#4168C9" stop-opacity="0"/>
</radialGradient>
</defs>
</svg>
